# xmcd CD database file
#
# Track frame offsets:
#	150
#	14256
#	30499
#	46249
#	60957
#	82785
#	101931
#	121885
#	135935
#	151020
#	163881
#	180911
#
# Disc length: 2716 seconds
#
# Revision: 0
# Processed by: cddbd v1.5.2PL0 Copyright (c) Steve Scherf et al.
# Submitted via: CDex 1.51
#
DISCID=7e0a9a0c
DTITLE=John McDermott - Waiting for the Moon
DYEAR=2001
DGENRE=New Age
TTITLE0=She is Mine
TTITLE1=Waiting for the Moon
TTITLE2=The Heart to Walk Away
TTITLE3=Old Man Time
TTITLE4=Rise
TTITLE5=Standing in the Rain
TTITLE6=I'll Hold On
TTITLE7=Hard to Stay in Love
TTITLE8=If Anything is Real
TTITLE9=All the Days
TTITLE10=I'm the One
TTITLE11=Unexplainable
EXTD=YEAR: 2001
EXTT0=
EXTT1=
EXTT2=
EXTT3=
EXTT4=
EXTT5=
EXTT6=
EXTT7=
EXTT8=
EXTT9=
EXTT10=
EXTT11=
PLAYORDER=
